HIERARCHY
ROOT Hips
{
	OFFSET 0.000000 0.000000 0.000000
	CHANNELS 6 Xposition Yposition Zposition Zrotation Yrotation Xrotation 
	JOINT LHipJoint
	{
		OFFSET 0.000000 0.000000 0.000000
		CHANNELS 3 Zrotation Yrotation Xrotation
		JOINT LeftUpLeg
		{
			OFFSET 1.363060 -1.794630 0.839290
			CHANNELS 3 Zrotation Yrotation Xrotation
			JOINT LeftLeg
			{
				OFFSET 2.448110 -6.726130 0.000000
				CHANNELS 3 Zrotation Yrotation Xrotation
				JOINT LeftFoot
				{
					OFFSET 2.562200 -7.039590 0.000000
					CHANNELS 3 Zrotation Yrotation Xrotation
					JOINT LeftToeBase
					{
						OFFSET 0.157640 -0.433110 2.322550
						CHANNELS 3 Zrotation Yrotation Xrotation
						End Site
						{
							OFFSET 0.000000 0.000000 0.000000
						}
					}
				}
			}
		}
	}
	JOINT RHipJoint
	{
		OFFSET 0.000000 0.000000 0.000000
		CHANNELS 3 Zrotation Yrotation Xrotation
		JOINT RightUpLeg
		{
			OFFSET -1.305520 -1.794630 0.839290
			CHANNELS 3 Zrotation Yrotation Xrotation
			JOINT RightLeg
			{
				OFFSET -2.542530 -6.985550 0.000000
				CHANNELS 3 Zrotation Yrotation Xrotation
				JOINT RightFoot
				{
					OFFSET -2.568260 -7.056230 0.000000
					CHANNELS 3 Zrotation Yrotation Xrotation
					JOINT RightToeBase
					{
						OFFSET -0.164730 -0.452590 2.363150
						CHANNELS 3 Zrotation Yrotation Xrotation
						End Site
						{
							OFFSET 0.000000 0.000000 0.000000
						}
					}
				}
			}
		}
	}
	JOINT LowerBack
	{
		OFFSET 0.000000 0.000000 0.000000
		CHANNELS 3 Zrotation Yrotation Xrotation
		JOINT Spine
		{
			OFFSET 0.028270 2.035590 -0.193380
			CHANNELS 3 Zrotation Yrotation Xrotation
			JOINT Spine1
			{
				OFFSET 0.056720 2.048850 -0.042750
				CHANNELS 3 Zrotation Yrotation Xrotation
				JOINT Neck
				{
					OFFSET 0.000000 0.000000 0.000000
					CHANNELS 3 Zrotation Yrotation Xrotation
					JOINT Neck1
					{
						OFFSET -0.054170 1.746240 0.172020
						CHANNELS 3 Zrotation Yrotation Xrotation
						JOINT Head
						{
							OFFSET 0.104070 1.761360 -0.123970
							CHANNELS 3 Zrotation Yrotation Xrotation
							End Site
							{
								OFFSET 0.000000 0.000000 0.000000
							}
						}
					}
				}
				JOINT LeftShoulder
				{
					OFFSET 0.000000 0.000000 0.000000
					CHANNELS 3 Zrotation Yrotation Xrotation
					JOINT LeftArm
					{
						OFFSET 3.362410 1.200890 -0.311210
						CHANNELS 3 Zrotation Yrotation Xrotation
						JOINT LeftForeArm
						{
							OFFSET 4.983000 -0.000000 -0.000000
							CHANNELS 3 Zrotation Yrotation Xrotation
							JOINT LeftHand
							{
								OFFSET 3.483560 -0.000000 -0.000000
								CHANNELS 3 Zrotation Yrotation Xrotation
								JOINT LeftFingerBase
								{
									OFFSET 0.000000 0.000000 0.000000
									CHANNELS 3 Zrotation Yrotation Xrotation
									JOINT LeftHandIndex1
									{
										OFFSET 0.715260 -0.000000 -0.000000
										CHANNELS 3 Zrotation Yrotation Xrotation
										End Site
										{
											OFFSET 0.000000 0.000000 0.000000
										}
									}
								}
								JOINT LThumb
								{
									OFFSET 0.000000 0.000000 0.000000
									CHANNELS 3 Zrotation Yrotation Xrotation
									End Site
									{
										OFFSET 0.000000 0.000000 0.000000
									}
								}
							}
						}
					}
				}
				JOINT RightShoulder
				{
					OFFSET 0.000000 0.000000 0.000000
					CHANNELS 3 Zrotation Yrotation Xrotation
					JOINT RightArm
					{
						OFFSET -3.136600 1.374050 -0.404650
						CHANNELS 3 Zrotation Yrotation Xrotation
						JOINT RightForeArm
						{
							OFFSET -5.241900 -0.000000 -0.000000
							CHANNELS 3 Zrotation Yrotation Xrotation
							JOINT RightHand
							{
								OFFSET -3.444170 -0.000000 -0.000000
								CHANNELS 3 Zrotation Yrotation Xrotation
								JOINT RightFingerBase
								{
									OFFSET 0.000000 0.000000 0.000000
									CHANNELS 3 Zrotation Yrotation Xrotation
									JOINT RightHandIndex1
									{
										OFFSET -0.622530 -0.000000 -0.000000
										CHANNELS 3 Zrotation Yrotation Xrotation
										End Site
										{
											OFFSET 0.000000 0.000000 0.000000
										}
									}
								}
								JOINT RThumb
								{
									OFFSET 0.000000 0.000000 0.000000
									CHANNELS 3 Zrotation Yrotation Xrotation
									End Site
									{
										OFFSET 0.000000 0.000000 0.000000
									}
								}
							}
						}
					}
				}
			}
		}
	}
}
MOTION
Frames: 10
Frame Time: 0.008333
17.267464 20.458310 1.626528 22.859861 -80.094138 -9.418735 -11.822712 3.704351 6.722095 -1.942060 -22.280898 -24.223937 2.906143 4.196465 87.057247 2.893532 10.779539 28.794014 4.856400 0.000000 -66.174000 13.261030 -3.756366 4.159989 0.653784 15.053014 -19.099095 -4.955466 -5.606276 96.752464 -1.633349 -8.862502 -8.641030 0.127100 -0.000000 -71.159000 -3.081204 -1.315804 -12.030747 -1.217393 -1.377538 -4.649198 -5.131483 -1.468374 1.263793 8.908500 -10.563165 -5.696521 -0.891308 -0.104065 0.638516 0.000000 0.000000 0.000000 14.186321 14.107118 -4.929520 -36.033529 -39.781926 -29.763365 177.721153 -64.849299 179.600487 30.647829 -35.608612 -10.687397 -0.395485 1.552362 0.000000 0.000000 0.000000 0.000000 0.000000 0.000000 0.000000 -5.390113 -11.239862 -2.251174 43.491144 17.990453 -58.147350 -177.768370 51.442561 179.751987 -30.708001 30.714620 -9.152678 0.560994 -1.243355 -0.000000 0.000000 0.000000 0.000000 0.000000 0.000000 0.000000 
17.133551 20.543059 1.615517 22.449317 -80.319267 -9.367158 -12.090222 3.727124 6.635505 -1.331408 -22.773290 -24.960116 3.331602 4.640719 92.013249 2.919549 10.555005 29.881739 4.853400 -0.000000 -66.043600 13.622141 -3.900112 4.109119 0.147306 15.940971 -19.604418 -5.907703 -6.102572 103.117928 -1.547531 -8.533985 -10.855807 0.387600 0.000000 -69.866800 -3.011639 -1.294597 -11.857817 -1.176624 -1.369289 -4.586994 -4.933943 -1.474445 1.381194 8.719012 -10.858099 -5.857376 -0.806203 -0.095238 0.593397 0.000000 0.000000 0.000000 14.351950 14.920981 -5.064755 -34.619606 -39.690977 -33.497955 177.522126 -62.655204 179.598926 32.030691 -36.478887 -11.485009 -0.434520 1.580274 -0.000000 0.000000 0.000000 0.000000 0.000000 0.000000 0.000000 -5.787585 -12.004768 -2.288767 42.030360 18.372556 -60.739647 -177.687620 50.205626 179.756081 -33.544178 32.378801 -10.598932 0.628095 -1.270921 -0.000000 0.000000 0.000000 0.000000 0.000000 0.000000 0.000000 
16.997533 20.619879 1.606475 21.734041 -80.547519 -8.946574 -12.374107 3.754776 6.582886 -0.505633 -23.408799 -25.672513 3.791143 5.077190 96.532201 2.887529 9.743773 31.031791 4.514499 0.000000 -65.448100 13.974255 -4.042584 4.078250 -0.421980 16.942561 -20.019651 -6.974637 -6.577261 109.139763 -1.452710 -8.099978 -13.069514 0.611600 -0.000001 -68.206200 -2.888141 -1.268121 -11.727077 -1.125279 -1.361041 -4.531977 -4.744756 -1.479300 1.500086 8.545158 -11.184250 -6.031969 -0.731803 -0.086926 0.544757 0.000000 0.000000 0.000000 14.455493 15.737586 -5.165216 -33.183882 -39.541100 -37.274036 177.357413 -60.545992 179.601217 33.477975 -37.212026 -12.289976 -0.479691 1.603523 -0.000000 0.000000 0.000000 0.000000 0.000000 0.000000 0.000000 -6.073722 -12.787563 -2.337757 40.483200 18.725804 -63.190068 -177.622513 49.053608 179.763741 -36.372979 33.797321 -12.063706 0.694490 -1.292276 -0.000000 0.000000 0.000000 0.000000 0.000000 0.000000 0.000000 
16.858677 20.689996 1.600189 20.657224 -80.776894 -8.110445 -12.669119 3.787035 6.565510 0.526508 -24.199740 -26.343654 4.277020 5.500105 100.575240 2.800105 8.379237 32.125951 3.823500 -0.000000 -64.575400 14.303644 -4.177805 4.073339 -1.050292 18.076193 -20.326245 -8.134073 -7.015642 114.738506 -1.364705 -7.638162 -15.249696 0.800000 0.000000 -66.253499 -2.700522 -1.234406 -11.643866 -1.061425 -1.351712 -4.485399 -4.566750 -1.481239 1.619520 8.386321 -11.533006 -6.216196 -0.668007 -0.079195 0.493751 0.000000 0.000000 0.000000 14.489327 16.550526 -5.231787 -31.753058 -39.327458 -41.050855 177.232741 -58.528273 179.607346 34.971844 -37.839230 -13.101791 -0.530137 1.622775 -0.000000 0.000000 0.000000 0.000000 0.000000 0.000000 0.000000 -6.260032 -13.573457 -2.400739 38.857885 19.037734 -65.459993 -177.572724 47.975053 179.774347 -39.103792 35.011189 -13.509605 0.758403 -1.309420 -0.000000 0.000000 0.000000 0.000000 0.000000 0.000000 0.000000 
16.716595 20.754569 1.597366 19.166673 -81.000242 -6.816012 -12.968802 3.823816 6.582604 1.745360 -25.147233 -26.960261 4.778099 5.903700 104.115149 2.665911 6.557703 33.069762 2.815400 -0.000000 -63.580500 14.594952 -4.299314 4.098614 -1.727972 19.345198 -20.518372 -9.346568 -7.402222 119.822901 -1.298597 -7.221131 -17.325911 0.961000 0.000000 -64.146000 -2.440749 -1.193037 -11.609901 -0.983106 -1.341563 -4.448187 -4.401161 -1.480073 1.737627 8.239774 -11.893093 -6.406088 -0.613911 -0.072056 0.441457 0.000000 0.000000 0.000000 14.450426 17.350950 -5.265922 -30.357168 -39.043637 -44.781372 177.150220 -56.608872 179.617056 36.493333 -38.377441 -13.915149 -0.584872 1.638584 -0.000000 0.000000 0.000000 0.000000 0.000000 0.000000 0.000000 -6.365529 -14.345105 -2.478121 37.168431 19.295453 -67.515131 -177.537845 46.958638 179.787100 -41.650226 36.069267 -14.903436 0.818285 -1.324659 -0.000000 0.000000 0.000000 0.000000 0.000000 0.000000 0.000000 
16.571353 20.814527 1.598473 17.235222 -81.204890 -5.049945 -13.264843 3.864310 6.631780 3.116734 -26.241115 -27.515419 5.278761 6.282155 107.135072 2.498432 4.431037 33.806084 1.576400 0.000000 -62.621299 14.834140 -4.400096 4.154520 -2.439926 20.730886 -20.610248 -10.556861 -7.724138 124.305106 -1.266307 -6.911359 -19.204336 1.106900 0.000000 -62.074000 -2.107583 -1.145211 -11.622478 -0.889536 -1.331802 -4.420678 -4.248056 -1.476776 1.851987 8.102359 -12.253731 -6.598319 -0.568180 -0.065473 0.388720 0.000000 0.000000 0.000000 14.343468 18.127905 -5.270098 -29.029750 -38.682137 -48.411743 177.107832 -54.791937 179.629837 38.019337 -38.831831 -14.718952 -0.642781 1.651460 -0.000000 0.000000 0.000000 0.000000 0.000000 0.000000 0.000000 -6.412091 -15.086049 -2.568576 35.436530 19.488218 -69.325728 -177.517227 45.997295 179.801079 -43.936334 37.018782 -16.216702 0.872833 -1.340206 0.000000 0.000000 0.000000 0.000000 0.000000 0.000000 0.000000 
16.422827 20.870069 1.603412 14.902957 -81.373039 -2.861810 -13.546523 3.907141 6.710353 4.590006 -27.459749 -28.010989 5.759003 6.629129 109.628573 2.314353 2.187817 34.315736 0.229000 -0.000000 -61.826600 15.011423 -4.473661 4.236768 -3.165789 22.186501 -20.638329 -11.696180 -7.973924 128.102872 -1.274314 -6.757902 -20.794487 1.250700 0.000000 -60.231600 -1.712416 -1.094132 -11.675728 -0.782411 -1.324450 -4.402645 -4.106306 -1.473489 1.960672 7.972626 -12.606240 -6.790131 -0.528720 -0.059343 0.336198 0.000000 0.000000 0.000000 14.185304 18.868469 -5.247814 -27.807736 -38.233812 -51.881603 177.099617 -53.083692 179.644913 39.522168 -39.198914 -15.495907 -0.702538 1.661764 -0.000000 0.000000 0.000000 0.000000 0.000000 0.000000 0.000000 -6.423157 -15.782681 -2.668704 33.694383 19.606036 -70.865710 -177.510088 45.088192 179.815310 -45.900253 37.900632 -17.425604 0.920984 -1.358000 -0.000000 0.000000 0.000000 0.000000 0.000000 0.000000 0.000000 
16.271457 20.921040 1.611422 12.295153 -81.484043 -0.390149 -13.801323 3.949469 6.815207 6.098088 -28.770878 -28.455760 6.196560 6.938376 111.602227 2.131812 0.033449 34.611008 -1.086700 0.000000 -61.317100 15.124514 -4.515083 4.333846 -3.879766 23.633811 -20.652754 -12.693569 -8.152688 131.157632 -1.322910 -6.794065 -22.041044 1.403300 0.000000 -58.751400 -1.281903 -1.044920 -11.758816 -0.666747 -1.321995 -4.392968 -3.974070 -1.473213 2.061661 7.852431 -12.943815 -6.978863 -0.492865 -0.053510 0.284486 0.000000 0.000000 0.000000 14.006368 19.555957 -5.203373 -26.730072 -37.687665 -55.124457 177.116253 -51.490714 179.661273 40.969515 -39.469882 -16.224126 -0.762614 1.669756 -0.000000 0.000000 0.000000 0.000000 0.000000 0.000000 0.000000 -6.421451 -16.424244 -2.773058 31.984638 19.640317 -72.115325 -177.515216 44.227779 179.828875 -47.499002 38.743073 -18.509938 0.962081 -1.379525 -0.000000 0.000000 0.000000 0.000000 0.000000 0.000000 0.000000 
16.117665 20.967148 1.621149 9.629968 -81.521013 2.134859 -14.015955 3.986413 6.943385 7.563162 -30.130931 -28.865599 6.569049 7.203078 113.069970 1.968447 -1.833507 34.716196 -2.234100 0.000000 -61.073001 15.179175 -4.522142 4.428756 -4.552535 24.970289 -20.707535 -13.485770 -8.269677 133.436026 -1.407392 -7.035936 -22.946079 1.572100 0.000000 -57.664100 -0.855792 -1.003512 -11.858741 -0.550657 -1.326557 -4.389684 -3.849355 -1.478944 2.154541 7.747511 -13.266647 -7.163009 -0.457788 -0.047779 0.233863 0.000000 0.000000 0.000000 13.846220 20.176697 -5.141950 -25.834037 -37.038900 -58.070643 177.146771 -50.018221 179.677816 42.327796 -39.647251 -16.884831 -0.821241 1.675891 -0.000000 0.000000 0.000000 0.000000 0.000000 0.000000 0.000000 -6.422929 -17.008914 -2.875989 30.356938 19.591136 -73.057408 -177.531427 43.418804 179.841005 -48.710068 39.564960 -19.454098 0.995632 -1.405583 -0.000000 0.000000 0.000000 0.000000 0.000000 0.000000 0.000000 
15.961856 21.007683 1.630903 7.164154 -81.474020 4.446106 -14.178528 4.011362 7.091818 8.906344 -31.490859 -29.254489 6.855356 7.416585 114.047962 1.840320 -3.236784 34.671056 -3.093600 0.000000 -61.190200 15.186327 -4.495821 4.501043 -5.147258 26.084400 -20.841950 -14.026338 -8.339130 134.931401 -1.519647 -7.477485 -23.570432 1.761899 -0.000000 -56.891300 -0.478980 -0.975664 -11.960486 -0.443801 -1.339536 -4.390132 -3.730523 -1.493130 2.239633 7.666603 -13.575329 -7.340957 -0.421145 -0.041982 0.184668 0.000000 0.000000 0.000000 13.747344 20.717048 -5.068642 -25.152116 -36.288323 -60.649797 177.180537 -48.669391 179.693447 43.562715 -39.739880 -17.462243 -0.876603 1.680791 -0.000000 0.000000 0.000000 0.000000 0.000000 0.000000 0.000000 -6.437356 -17.536773 -2.971058 28.861630 19.458983 -73.684914 -177.557520 42.660377 179.851181 -49.532704 40.373203 -20.247178 1.021575 -1.436387 -0.000000 0.000000 0.000000 0.000000 0.000000 0.000000 0.000000 
